Coordinates	
version=1	
nRows=252	
nColumns=2	
inDegrees=yes	
endheader	
time	elbow_flexion
3.754616507	7.900936021
3.757063239	7.916860978
3.759509971	7.932608312
3.761956703	7.94815466
3.764403435	7.96347723
3.766850167	7.978553823
3.769296899	7.993362864
3.771743631	8.007883416
3.774190363	8.022095207
3.776637095	8.035978646
3.779083827	8.049514838
3.781530559	8.062685604
3.783977291	8.075473493
3.786424023	8.087861795
3.788870755	8.099834555
3.791317487	8.111376578
3.793764219	8.122473442
3.796210951	8.133111508
3.798657684	8.143277922
3.801104416	8.152960621
3.803551148	8.162148343
3.80599788	8.170830625
3.808444612	8.17899781
3.810891344	8.186641044
3.813338076	8.193752284
3.815784808	8.200324292
3.81823154	8.206350638
3.820678272	8.211825699
3.823125004	8.216744654
3.825571736	8.221103486
3.828018468	8.224898976
3.8304652	8.228128701
3.832911932	8.230791029
3.835358664	8.232885114
3.837805396	8.23441089
3.840252128	8.235369069
3.84269886	8.23576113
3.845145592	8.235589316
3.847592324	8.234856624
3.850039056	8.2335668
3.852485789	8.231724328
3.854932521	8.229334425
3.857379253	8.226403027
3.859825985	8.222936785
3.862272717	8.218943051
3.864719449	8.214429869
3.867166181	8.209405964
3.869612913	8.203880731
3.872059645	8.197864222
3.874506377	8.191367135
3.876953109	8.184400797
3.879399841	8.176977158
3.881846573	8.169108769
3.884293305	8.160808772
3.886740037	8.152090881
3.889186769	8.142969372
3.891633501	8.13345906
3.894080233	8.123575285
3.896526965	8.113333892
3.898973697	8.102751217
3.901420429	8.091844063
3.903867162	8.080629679
3.906313894	8.069125746
3.908760626	8.057350347
3.911207358	8.045321951
3.91365409	8.033059388
3.916100822	8.020581823
3.918547554	8.007908734
3.920994286	7.995059888
3.923441018	7.982055309
3.92588775	7.968915258
3.928334482	7.9556602
3.930781214	7.942310777
3.933227946	7.92888778
3.935674678	7.915412121
3.93812141	7.901904796
3.940568142	7.888386859
3.943014874	7.87487939
3.945461606	7.86140346
3.947908338	7.8479801
3.95035507	7.834630267
3.952801802	7.821374811
3.955248535	7.80823444
3.957695267	7.795229683
3.960141999	7.782380861
3.962588731	7.769708047
3.965035463	7.757231036
3.967482195	7.744969302
3.969928927	7.732941974
3.972375659	7.72116779
3.974822391	7.709665073
3.977269123	7.69845169
3.979715855	7.687545021
3.982162587	7.676961925
3.984609319	7.666718711
3.987056051	7.656831101
3.989502783	7.647314205
3.991949515	7.638182487
3.994396247	7.629449741
3.996842979	7.621129057
3.999289711	7.613232802
4.001736443	7.605772593
4.004183175	7.598759269
4.006629908	7.592202879
4.00907664	7.586112652
4.011523372	7.580496986
4.013970104	7.575363429
4.016416836	7.570718662
4.018863568	7.566568493
4.0213103	7.562917838
4.023757032	7.559770721
4.026203764	7.557130259
4.028650496	7.554998666
4.031097228	7.553377243
4.03354396	7.552266384
4.035990692	7.551665575
4.038437424	7.551573398
4.040884156	7.551987539
4.043330888	7.552904794
4.04577762	7.554321082
4.048224352	7.556231455
4.050671084	7.558630115
4.053117816	7.561510427
4.055564548	7.564864941
4.05801128	7.568685409
4.060458013	7.572962808
4.062904745	7.577687363
4.065351477	7.58284857
4.067798209	7.588435228
4.070244941	7.594435457
4.072691673	7.600836737
4.075138405	7.607625931
4.077585137	7.614789319
4.080031869	7.622312628
4.082478601	7.630181067
4.084925333	7.638379359
4.087372065	7.646891773
4.089818797	7.655702164
4.092265529	7.664794
4.094712261	7.674150406
4.097158993	7.68375419
4.099605725	7.693587887
4.102052457	7.703633786
4.104499189	7.713873973
4.106945921	7.724290359
4.109392653	7.734864721
4.111839386	7.745578728
4.114286118	7.756413986
4.11673285	7.767352059
4.119179582	7.778374512
4.121626314	7.789462935
4.124073046	7.800598979
4.126519778	7.811764387
4.12896651	7.82294102
4.131413242	7.834110888
4.133859974	7.845256177
4.136306706	7.856359279
4.138753438	7.867402813
4.14120017	7.878369655
4.143646902	7.889242958
4.146093634	7.900006181
4.148540366	7.910643102
4.150987098	7.921137849
4.15343383	7.931474914
4.155880562	7.941639172
4.158327294	7.951615903
4.160774026	7.961390807
4.163220759	7.970950017
4.165667491	7.980280121
4.168114223	7.989368168
4.170560955	7.998201689
4.173007687	8.006768704
4.175454419	8.015057734
4.177901151	8.023057813
4.180347883	8.030758498
4.182794615	8.038149876
4.185241347	8.04522257
4.187688079	8.051967752
4.190134811	8.058377144
4.192581543	8.064443025
4.195028275	8.070158236
4.197475007	8.075516184
4.199921739	8.080510844
4.202368471	8.085136765
4.204815203	8.089389068
4.207261935	8.093263448
4.209708667	8.096756176
4.212155399	8.099864099
4.214602132	8.102584637
4.217048864	8.104915786
4.219495596	8.106856112
4.221942328	8.108404751
4.22438906	8.109561405
4.226835792	8.110326341
4.229282524	8.110700382
4.231729256	8.11068491
4.234175988	8.110281853
4.23662272	8.109493685
4.239069452	8.108323418
4.241516184	8.106774598
4.243962916	8.104851292
4.246409648	8.102558089
4.24885638	8.099900085
4.251303112	8.096882877
4.253749844	8.093512557
4.256196576	8.089795699
4.258643308	8.085739349
4.26109004	8.081351018
4.263536772	8.076638669
4.265983505	8.071610705
4.268430237	8.06627596
4.270876969	8.060643683
4.273323701	8.054723532
4.275770433	8.048525552
4.278217165	8.042060168
4.280663897	8.035338169
4.283110629	8.028370692
4.285557361	8.021169209
4.288004093	8.01374551
4.290450825	8.006111688
4.292897557	7.998280122
4.295344289	7.990263459
4.297791021	7.982074599
4.300237753	7.973726675
4.302684485	7.965233036
4.305131217	7.956607226
4.307577949	7.94786297
4.310024681	7.939014146
4.312471413	7.930074775
4.314918145	7.921058991
4.317364877	7.911981028
4.31981161	7.902855193
4.322258342	7.893695851
4.324705074	7.884517396
4.327151806	7.875334235
4.329598538	7.866160761
4.33204527	7.857011338
4.334492002	7.847900268
4.336938734	7.838841779
4.339385466	7.829849994
4.341832198	7.820938914
4.34427893	7.81212239
4.346725662	7.803414107
4.349172394	7.794827554
4.351619126	7.786376006
4.354065858	7.778072501
4.35651259	7.769929819
4.358959322	7.761960455
4.361406054	7.754176604
4.363852786	7.746590137
4.366299518	7.739212579
4.36874625	7.732055092
